<svg id="Capa_1" data-name="Capa 1" xmlns="http://www.w3.org/2000/svg" viewBox="0 0 327.11 100.1"><defs><style>.cls-1{fill:#1c3455;}</style></defs><path class="cls-1" d="M267.89,71.1a2,2,0,1,1-2-2A2,2,0,0,1,267.89,71.1Z"/><path class="cls-1" d="M301.87,71.1a2,2,0,1,1-2-2A2,2,0,0,1,301.87,71.1Z"/><path class="cls-1" d="M72.56,40.68a17.8,17.8,0,0,0-4.12-6.59,16.74,16.74,0,0,0-6.19-3.86A23.23,23.23,0,0,0,54.53,29a23,23,0,0,0-7.64,1.25,16.74,16.74,0,0,0-6.19,3.86,17.67,17.67,0,0,0-4.12,6.59,27.17,27.17,0,0,0-1.49,9.47,27.17,27.17,0,0,0,1.49,9.47,17.67,17.67,0,0,0,4.12,6.59,16.48,16.48,0,0,0,6.19,3.86,23,23,0,0,0,7.64,1.25,23.23,23.23,0,0,0,7.72-1.25,16.48,16.48,0,0,0,6.19-3.86,17.8,17.8,0,0,0,4.12-6.59A27.41,27.41,0,0,0,74,50.15a27.41,27.41,0,0,0-1.48-9.47m-42.43-.52a20.82,20.82,0,0,1,5.42-7.42,23.77,23.77,0,0,1,8.35-4.62,34,34,0,0,1,10.63-1.58,34.34,34.34,0,0,1,10.71,1.58,23.64,23.64,0,0,1,8.34,4.62A20.73,20.73,0,0,1,79,40.16a24.49,24.49,0,0,1,1.93,10,24.49,24.49,0,0,1-1.93,10,20.73,20.73,0,0,1-5.43,7.42,22.41,22.41,0,0,1-8.34,4.52,36.58,36.58,0,0,1-10.71,1.48A36.23,36.23,0,0,1,43.9,72.08a22.54,22.54,0,0,1-8.35-4.52,20.82,20.82,0,0,1-5.42-7.42,24.49,24.49,0,0,1-1.93-10,24.49,24.49,0,0,1,1.93-10"/><path class="cls-1" d="M102.14,50a23.74,23.74,0,0,0,4.58-.47,12.66,12.66,0,0,0,4.33-1.71,9.61,9.61,0,0,0,3.22-3.41,11.19,11.19,0,0,0,1.25-5.6,11,11,0,0,0-.86-4.69,6.69,6.69,0,0,0-2.4-2.81,9.76,9.76,0,0,0-3.75-1.37,30.26,30.26,0,0,0-5-.37H97.07v19.9a23.88,23.88,0,0,0,5.07.53M90.63,27.05c1.14.09,17.4,0,18.45.07a23,23,0,0,1,3.33.4,18.9,18.9,0,0,1,3.46,1A10,10,0,0,1,119,30.46a9.61,9.61,0,0,1,2.25,3.19,11.53,11.53,0,0,1,.85,4.73,11.71,11.71,0,0,1-2,7.16,14.53,14.53,0,0,1-5,4.29,20.68,20.68,0,0,1-6.29,2.07,37.18,37.18,0,0,1-5.9.54c-1.1,0-2.1,0-3,0s-1.84-.07-2.79-.16v3.68c0,2.95.05,5.86.17,8.71s.26,5.67.4,8.44c-1.1-.08-2.27-.13-3.51-.13s-2.4,0-3.5.13c.14-2.77.14-43.07,0-46"/><path class="cls-1" d="M133,52.56c1.22,0,2.49,0,3.8.06s2.59.08,3.81.08,2.63,0,3.95,0,2.62-.06,3.94-.1l-7.82-16.75Zm31.2,20.51a15.61,15.61,0,0,0-1.86-.13h-3.74a15.61,15.61,0,0,0-1.86.13c-.33-1-.78-2.23-1.34-3.66s-1.19-2.92-1.86-4.49-1.38-3.13-2.09-4.74-1.36-3.13-2-4.58c-1.51-.05-3-.08-4.59-.11s-3.09,0-4.64,0-2.89,0-4.3,0-2.84.06-4.29.11q-2.25,5.13-4.09,9.79c-1.22,3.1-2.13,5.66-2.75,7.68a26.07,26.07,0,0,0-5.2,0q5.7-11.53,11.12-22.95t10.91-23.21H143c1.12,2.55,2.34,5.3,3.65,8.27s2.66,6,4,9,2.72,6,4.09,9,2.63,5.77,3.83,8.34,2.28,4.87,3.24,6.9,1.75,3.56,2.36,4.61"/><path class="cls-1" d="M172.49,27.12c.62.09,1.22.17,1.79.23a13.35,13.35,0,0,0,3.42,0c.58-.06,1.17-.14,1.79-.23,0,3-.15,43.19,0,45.95-1.1-.08-2.26-.13-3.5-.13s-2.4,0-3.5.13c-.18-2.68.14-43,0-45.95"/><path class="cls-1" d="M215.41,56q-9.15-9.19-18.31-18.31c0,1.24-.09,2.88-.14,5s-.06,4.87-.06,8.43c0,.92,0,2.07,0,3.44s0,2.79.07,4.29.06,3,.1,4.54.1,3,.14,4.29.1,2.47.15,3.46.09,1.57.14,1.92a21,21,0,0,0-2.47-.13c-.93,0-2.57.13-2.57.13l0-46.07h2.38q4.29,4.34,9.19,9.33c3.26,3.31,6.5,6.6,9.72,9.82s6.27,6.3,9.16,9.17,4.76,5.33,6.93,7.36V27.06a14.77,14.77,0,0,0,2.51.23,8,8,0,0,0,2.21-.23V73.22H232c-5.4-5.84-10.5-11.12-16.6-17.26"/><path class="cls-1" d="M247,69.61a5.45,5.45,0,0,0,1.15,1.09,5.94,5.94,0,0,0,1.57.8,6.33,6.33,0,0,0,2,.3,5.42,5.42,0,0,0,2.07-.37,4.67,4.67,0,0,0,1.56-1,4.32,4.32,0,0,0,1-1.5,5,5,0,0,0,.34-1.83,3.33,3.33,0,0,0-.82-2.37,6.62,6.62,0,0,0-2-1.45,23.44,23.44,0,0,0-2.62-1.08A13.93,13.93,0,0,1,248.58,61a6.85,6.85,0,0,1-2-1.87,5.26,5.26,0,0,1-.81-3.06,5.8,5.8,0,0,1,.52-2.48,5.49,5.49,0,0,1,1.51-1.93,7.25,7.25,0,0,1,2.37-1.26,10.95,10.95,0,0,1,6-.08,7.24,7.24,0,0,1,2.25,1.14,6.79,6.79,0,0,0-.51,1.17,14,14,0,0,0-.42,1.56H257a7.78,7.78,0,0,0-.47-1,3.71,3.71,0,0,0-.8-1,4.58,4.58,0,0,0-1.19-.76,4,4,0,0,0-1.67-.31,5.4,5.4,0,0,0-1.78.29,4.43,4.43,0,0,0-1.42.83,3.55,3.55,0,0,0-.93,1.28,4,4,0,0,0-.33,1.63,3.4,3.4,0,0,0,.81,2.4,7.09,7.09,0,0,0,2,1.48,20.16,20.16,0,0,0,2.62,1.06,15.42,15.42,0,0,1,2.61,1.16,6.5,6.5,0,0,1,2,1.76,4.59,4.59,0,0,1,.81,2.85,7.12,7.12,0,0,1-.57,2.83A6.56,6.56,0,0,1,257.13,71a7.47,7.47,0,0,1-2.67,1.54,11.34,11.34,0,0,1-3.59.53,8.7,8.7,0,0,1-5.72-1.76,6.71,6.71,0,0,0,.43-1.35c.08-.4.16-.9.23-1.54h.42a6.78,6.78,0,0,0,.74,1.19"/><path class="cls-1" d="M278.52,63l1.87,0c.64,0,1.27,0,1.87,0h1.94l1.95-.05-3.85-8.25Zm15.35,10.1A5.88,5.88,0,0,0,293,73h-1.83a5.88,5.88,0,0,0-.92.07c-.16-.49-.39-1.1-.66-1.8s-.58-1.44-.92-2.21-.67-1.55-1-2.34-.67-1.54-1-2.25c-.74,0-1.49,0-2.25,0l-2.29,0-2.11,0c-.7,0-1.41,0-2.12,0-.74,1.69-1.41,3.29-2,4.82s-1.05,2.79-1.35,3.78a11.83,11.83,0,0,0-2.57,0q2.81-5.68,5.48-11.3c1.78-3.74,3.57-7.56,5.37-11.43h.66c.56,1.26,1.16,2.61,1.8,4.08l2,4.43c.67,1.49,1.34,3,2,4.45s1.3,2.83,1.89,4.1l1.59,3.4c.48,1,.86,1.75,1.16,2.27"/></svg>